<?xml version="1.0" standalone="no"?>
<svg viewBox="0 0 200 200" xmlns="http://www.w3.org/2000/svg">
  <path fill="#0DCAF0" d="M39.8,-69.1C47.4,-64.6,46.5,-45.4,51.1,-31.5C55.8,-17.5,66.1,-8.8,66.9,0.5C67.8,9.7,59.2,19.5,53.9,32.4C48.6,45.3,46.6,61.3,38.2,71C29.8,80.6,14.9,83.9,2.3,79.9C-10.2,75.9,-20.5,64.6,-27.3,53.9C-34.1,43.3,-37.4,33.4,-47.4,24.5C-57.4,15.7,-74.1,7.8,-80.8,-3.9C-87.6,-15.6,-84.3,-31.2,-74.9,-41.1C-65.5,-51.1,-50,-55.3,-36.5,-56.5C-23,-57.6,-11.5,-55.5,2.3,-59.5C16.1,-63.6,32.2,-73.7,39.8,-69.1Z" transform="translate(100 100)" />
</svg>
