<?xml version="1.0" standalone="no"?><svg xmlns="http://www.w3.org/2000/svg" viewBox="0 0 1440 320"><path fill="#0dcaf0" fill-opacity="1" d="M0,64L16,96C32,128,64,192,96,213.3C128,235,160,213,192,176C224,139,256,85,288,58.7C320,32,352,32,384,58.7C416,85,448,139,480,144C512,149,544,107,576,80C608,53,640,43,672,48C704,53,736,75,768,101.3C800,128,832,160,864,176C896,192,928,192,960,202.7C992,213,1024,235,1056,240C1088,245,1120,235,1152,213.3C1184,192,1216,160,1248,128C1280,96,1312,64,1344,48C1376,32,1408,32,1424,32L1440,32L1440,320L1424,320C1408,320,1376,320,1344,320C1312,320,1280,320,1248,320C1216,320,1184,320,1152,320C1120,320,1088,320,1056,320C1024,320,992,320,960,320C928,320,896,320,864,320C832,320,800,320,768,320C736,320,704,320,672,320C640,320,608,320,576,320C544,320,512,320,480,320C448,320,416,320,384,320C352,320,320,320,288,320C256,320,224,320,192,320C160,320,128,320,96,320C64,320,32,320,16,320L0,320Z"></path></svg>